PathFileType	4	(X/Y/Z)	C:\Github\FootballMatch-and-Movement-Analysis\output\test4 Exam_2026-03-06_143128_tvc1_Sports2D\test4 Exam_2026-03-06_143128_tvc1_Sports2D_m_person00.trc
DataRate	CameraRate	NumFrames	NumMarkers	Units	OrigDataRate	OrigDataStartFrame	OrigNumFrames
30.0	30.0	10	22	m	30.0	240	320
Frame#	Time	Hip			RHip			RKnee			RAnkle			RBigToe			RSmallToe			RHeel			LHip			LKnee			LAnkle			LBigToe			LSmallToe			LHeel			Neck			Head			Nose			RShoulder			RElbow			RWrist			LShoulder			LElbow			LWrist			
		X1	Y1	Z1	X2	Y2	Z2	X3	Y3	Z3	X4	Y4	Z4	X5	Y5	Z5	X6	Y6	Z6	X7	Y7	Z7	X8	Y8	Z8	X9	Y9	Z9	X10	Y10	Z10	X11	Y11	Z11	X12	Y12	Z12	X13	Y13	Z13	X14	Y14	Z14	X15	Y15	Z15	X16	Y16	Z16	X17	Y17	Z17	X18	Y18	Z18	X19	Y19	Z19	X20	Y20	Z20	X21	Y21	Z21	X22	Y22	Z22
240	8.025078369905955	0.8089838323470376	0.7737934608918077	0.0	0.7743563253670699	0.7409318059200057	-0.105	0.7600435630559172	0.3873080763993134	-0.0886	0.8713542741959921	0.034501778385533775	-0.0972	0.7159551584992427	-0.03888627961861327	-0.0766	0.7395841995879898	-0.02727484432539684	-0.12	0.9333438827793111	0.0011968287322232025	-0.0883	0.8539839355782947	0.7718904879003438	0.105	0.8495473493957366	0.3864294938812468	0.0886	1.170909399125007	0.146031776510878	0.0972	1.1113590619462075	-0.017044888540641498	0.0766	1.1599196959336935	0.004338683832927029	0.12	1.2346277488705768	0.15259532232065953	0.0883	0.6753498559555983	1.2696783296391747	0.0	0.5756295928259745	1.4814618595077125	0.0	0.5360472970135043	1.3481266367745088	0.0	0.6618208305452834	1.2064077044431691	-0.2016	0.7443258780918884	0.9735605637393407	-0.1613	0.6623530075564109	0.8395619422588232	-0.12	0.7281022365580321	1.2561629908751506	0.2016	0.7886151850036605	1.217280283794198	0.1613	0.631266850613151	1.260566492398288	0.12
241	8.058516196447231	0.8051090098689386	0.7791566978343717	0.0	0.7667492205791447	0.7473147757504413	-0.105	0.7663133129142089	0.38723416522775284	-0.0886	0.8736264565241412	0.035867655544472604	-0.0972	0.7300558088443614	-0.04033491643405574	-0.0766	0.7490692605878694	-0.028608206700262123	-0.12	0.9330686508093485	9.155701545583852e-05	-0.0883	0.8498716931710832	0.7775554743190908	0.105	0.8413396031578764	0.39293551054151415	0.0886	1.162167434215829	0.16119785338669382	0.0972	1.1083297469185749	0.001038108191528884	0.0766	1.157598166008786	0.02064877886484402	0.12	1.2248215843515953	0.16618418609987196	0.0883	0.6834761844180349	1.277757910531974	0.0	0.5869262041880613	1.4935964928385517	0.0	0.5436035829432936	1.3610820752931734	0.0	0.6710423391782288	1.2151166792384098	-0.2016	0.7485145027381738	0.9792540545900636	-0.1613	0.6739167275920037	0.8356773906260695	-0.12	0.7362927120999433	1.2629794987601572	0.2016	0.7886544817551043	1.2249225135436062	0.1613	0.6375387264925714	1.2649965477713796	0.12
242	8.091954022988505	0.8024392897571576	0.7834861913011164	0.0	0.7593557281246641	0.7558098473445762	-0.105	0.7685356652110968	0.388197872476305	-0.0886	0.8749609649354554	0.03578277203751159	-0.0972	0.7441420384213184	-0.04019637068464587	-0.0766	0.7597100087237625	-0.02665416095150913	-0.12	0.9315546331962931	-0.0022112954968790772	-0.0883	0.8474615551072001	0.7843102225874018	0.105	0.8347520289533603	0.3985529030845615	0.0886	1.15226195883735	0.17843384477535953	0.0972	1.101866005322172	0.01924351028009402	0.0766	1.153195108813648	0.036900460009431826	0.12	1.2121291780387684	0.18274264375531898	0.0883	0.6902118958335374	1.285386833499206	0.0	0.5975304178360701	1.5042890083738447	0.0	0.5509855682968836	1.371928678237747	0.0	0.6799355984909129	1.2231073619376969	-0.2016	0.7533342906341154	0.9826663500585804	-0.1613	0.6858064272308493	0.8341069300218455	-0.12	0.7444831956044009	1.2684355497267914	0.2016	0.7892365303955192	1.227065277575526	0.1613	0.6415121413233644	1.2599482810937772	0.12
243	8.12539184952978	0.7988032163246999	0.7863647826712303	0.0	0.7528498752010976	0.7641315897156148	-0.105	0.7678265176370858	0.3890944892776262	-0.0886	0.8750787724721577	0.03173485171096177	-0.0972	0.7453987145092527	-0.03891543625106323	-0.0766	0.7618391993508995	-0.024603538068749875	-0.12	0.9308605916744409	-0.0044257410147027585	-0.0883	0.8460231543770779	0.7913658249292725	0.105	0.8296789271363165	0.40091886646557845	0.0886	1.14181143798123	0.19791781626020843	0.0972	1.0930108577518158	0.03434760581375672	0.0766	1.1446572288262928	0.05210135194301605	0.12	1.1982873102278038	0.20511852670759106	0.0883	0.6956519461674424	1.2921122522053543	0.0	0.609849657425044	1.5106317891129997	0.0	0.5600523939138665	1.380951343468026	0.0	0.6853857073883327	1.2311022359453707	-0.2016	0.7582051647909376	0.9879554038616442	-0.1613	0.6895400453585582	0.8373860054357096	-0.12	0.7504831814457744	1.272662494047341	0.2016	0.7947458813313	1.2205657477816771	0.1613	0.6423992751706086	1.2463569331842306	0.12
244	8.158829676071054	0.7944260638964767	0.7871680343895103	0.0	0.7487675888194999	0.7686300865322592	-0.105	0.7640268440759554	0.3905175984114347	-0.0886	0.8754240655410642	0.02556644409342672	-0.0972	0.7412518170791568	-0.03772320834697656	-0.0766	0.7601470875880233	-0.024132321667452564	-0.12	0.933387808142091	-0.0058421350229166	-0.0883	0.8440209306910126	0.7953340316670783	0.105	0.8230874918828378	0.4003332710481874	0.0886	1.1312922584114276	0.21901552680914158	0.0972	1.0868597385925445	0.0471280965129859	0.0766	1.136481508285746	0.06634179886630648	0.12	1.184726420669995	0.22933275828099373	0.0883	0.700856892940447	1.2965575166214907	0.0	0.6218607318385343	1.5144356757607653	0.0	0.5694895976592379	1.3877133903011432	0.0	0.6901754211539923	1.238949249041409	-0.2016	0.761863182619219	0.9955271125559242	-0.1613	0.6882938444924545	0.8424253444534957	-0.12	0.7532192268706115	1.2746624200134242	0.2016	0.8036382591155431	1.2097453397507967	0.1613	0.6408657485974242	1.2286521264276131	0.12
245	8.19226750261233	0.7910983525415041	0.7866687467964323	0.0	0.7474471062712632	0.7686453506167937	-0.105	0.7580319772697569	0.3932911889507747	-0.0886	0.8772470146596366	0.021147737563075298	-0.0972	0.7449624618959351	-0.036314962420669	-0.0766	0.7633260474217625	-0.023873024729506698	-0.12	0.9378315002905653	-0.006569131679530163	-0.0883	0.839916013149215	0.794880130697176	0.105	0.8133704719623488	0.39911148309615707	0.0886	1.1211740810613986	0.2394615995330708	0.0972	1.0861371752137676	0.05898501105640005	0.0766	1.13177322377022	0.07998870672664044	0.12	1.1714360851922594	0.2505463117023027	0.0883	0.7059908666148466	1.298644119697879	0.0	0.6308431170375052	1.5188339768807628	0.0	0.5761021165639961	1.3915487571779543	0.0	0.6981564690467387	1.245716310307924	-0.2016	0.7636753879694589	1.0065400451751207	-0.1613	0.6892473518912006	0.8437532597748417	-0.12	0.7536987548524786	1.2747841624600627	0.2016	0.8101412261239896	1.2011104739834786	0.1613	0.6409954486568419	1.2113245039960827	0.12
246	8.225705329153604	0.7901286653062086	0.7864325306981121	0.0	0.7486602706332396	0.7669259949571932	-0.105	0.7537449091649288	0.3956391719924187	-0.0886	0.8795453673749121	0.019453456434014454	-0.0972	0.7525317174940157	-0.03207120277030645	-0.0766	0.768873610431791	-0.02067010878310414	-0.12	0.939306522750057	-0.00690667756798637	-0.0883	0.833841466882058	0.7921731671863663	0.105	0.8028606795108985	0.39893796311656987	0.0886	1.11174995196706	0.25645785754864014	0.0972	1.0882748487430456	0.06936211358938375	0.0766	1.126879660092452	0.09215176741338583	0.12	1.1594450433552153	0.2691317942258754	0.0883	0.7093529045441123	1.2996669874675884	0.0	0.6381397524327271	1.5234315589099556	0.0	0.5793663648520133	1.3929794744500048	0.0	0.7071711147458353	1.2502790937663888	-0.2016	0.7640277722822867	1.0194149159129902	-0.1613	0.6925403612741109	0.8411026293400402	-0.12	0.7535500481242601	1.274261310804178	0.2016	0.8127861007911841	1.1951058504484444	0.1613	0.6471493714862501	1.194181294416559	0.12
247	8.25914315569488	0.7907579103064273	0.7873922119312542	0.0	0.751547756550908	0.7658978235354733	-0.105	0.7532879468301427	0.39664362050432334	-0.0886	0.8807845882269147	0.020150923881963864	-0.0972	0.7547541570766013	-0.025574947621804036	-0.0766	0.7714506251054927	-0.01412600964484377	-0.12	0.9365760955926042	-0.0063169193926124675	-0.0883	0.8280453357006268	0.789010321790097	0.105	0.7947895744066904	0.39996088795986995	0.0886	1.1034120225902908	0.26912521317951194	0.0972	1.0896141428122186	0.07841400272100321	0.0766	1.1192208665093668	0.10259652683415323	0.12	1.1504896420980661	0.28632715135400494	0.0883	0.7107259108520332	1.3003112402801662	0.0	0.6461137138175683	1.5260437364089667	0.0	0.5824491146625685	1.3938169201685935	0.0	0.7125924365533289	1.2524422957455468	-0.2016	0.7629115964485726	1.0289413904647664	-0.1613	0.6923964631435423	0.8379188772589367	-0.12	0.7535751074850269	1.2735353419293318	0.2016	0.8142415363673846	1.1884707635962022	0.1613	0.656320460844218	1.1765238583561393	0.12
248	8.292580982236153	0.7906379948597648	0.7888288616304817	0.0	0.7538010604132466	0.7659096944880024	-0.105	0.7541846778709446	0.3977328555833161	-0.0886	0.8812263120488558	0.023261940369325208	-0.0972	0.752625359572009	-0.02029260762127453	-0.0766	0.771750715585823	-0.007801227303139567	-0.12	0.9342619010522272	-0.005368913202582485	-0.0883	0.8241342546456542	0.7860824104100084	0.105	0.790236454603313	0.4015866888952653	0.0886	1.096916237349536	0.2798612270115968	0.0972	1.0889821025236845	0.08801270029486283	0.0766	1.112643417000799	0.11399768542287776	0.12	1.1437883376698366	0.3006071587569919	0.0883	0.7125522084659461	1.3003629954977514	0.0	0.6541177111111055	1.526657081324066	0.0	0.587443247306269	1.3956324246871825	0.0	0.7140272302371921	1.2533301161951595	-0.2016	0.760734957088278	1.0365915380011979	-0.1613	0.6869988583664722	0.834572765729994	-0.12	0.7537703753858859	1.2724759311511211	0.2016	0.8142863158135467	1.1810904940428373	0.1613	0.6613566880043779	1.1610706239103592	0.12
249	8.326018808777429	0.7883424020556965	0.7890537335182007	0.0	0.7547082979371605	0.7665492532894083	-0.105	0.7532425833173473	0.39911368029586425	-0.0886	0.8816746677429262	0.027251705273767763	-0.0972	0.7495086858010848	-0.01746505346140642	-0.0766	0.770367834265789	-0.004709206124502138	-0.12	0.9353335791735463	-0.0059731448244902995	-0.0883	0.82106442096811	0.7845382976281248	0.105	0.7868624038531293	0.4031598860399955	0.0886	1.0923099130003768	0.2903613317211092	0.0972	1.0868551154177264	0.09795662698297022	0.0766	1.1107639283277695	0.12670711904483292	0.12	1.1371929276875319	0.31060480073254737	0.0883	0.7157433285557829	1.30051636880769	0.0	0.6603595551489025	1.5267934359455115	0.0	0.5927932148753494	1.3988073107036518	0.0	0.7140688954251	1.254159269075921	-0.2016	0.7603489007794844	1.0471534922926378	-0.1613	0.682024206721924	0.8300102284932488	-0.12	0.7538182649141407	1.2714817003402397	0.2016	0.811413478769038	1.1758656040286581	0.1613	0.661470654673876	1.1507168529442175	0.12
